<svg width="20" height="16" viewBox="0 0 20 16" fill="none" xmlns="http://www.w3.org/2000/svg">
<path d="M10 0.000209628C6.834 0.0252096 3.933 2.15322 3.173 5.53621C1.232 6.35221 0 8.1942 0 10.3752C0 13.3852 2.37601 16.0002 5.31201 16.0002H6C6.552 16.0002 7 15.5532 7 15.0002C7 14.4482 6.552 14.0002 6 14.0002H5.31201C3.52601 14.0002 2 12.3212 2 10.3752C2 8.88219 2.93399 7.64119 4.34399 7.21919C4.71699 7.10719 4.97601 6.7922 5.03101 6.4062C5.41701 3.70021 7.592 2.01921 10 2.00021C12.681 1.97921 15.021 4.2872 15 7.0002C15 7.0602 15 7.86319 15 8.09419C15 8.55919 15.296 8.95821 15.75 9.06221C17.066 9.36721 18 10.3992 18 11.5002C18 12.8492 16.684 14.0002 15 14.0002H14C13.448 14.0002 13 14.4482 13 15.0002C13 15.5522 13.448 16.0002 14 16.0002H15C17.734 16.0002 20 14.0172 20 11.5002C20 9.68519 18.785 8.07921 16.987 7.38521C16.989 7.20721 17 7.0262 17 7.0002C17.03 3.1642 13.791 -0.0297903 10 0.000209628ZM10 6.0002L6.98801 9.0132L9 9.00019V15.0002C9 15.5522 9.448 16.0002 10 16.0002C10.552 16.0002 11 15.5522 11 15.0002V9.00019L13.012 9.00917L10 6.0002Z" fill="#475569"/>
</svg>
