<svg width="20" height="20" viewBox="0 0 20 20" fill="none" xmlns="http://www.w3.org/2000/svg">
<path d="M10.0001 1.66663C5.40841 1.66663 1.66675 5.40829 1.66675 9.99996C1.66675 14.5916 5.40841 18.3333 10.0001 18.3333C14.5917 18.3333 18.3334 14.5916 18.3334 9.99996C18.3334 5.40829 14.5917 1.66663 10.0001 1.66663ZM13.3334 10.625H10.6251V13.3333C10.6251 13.675 10.3417 13.9583 10.0001 13.9583C9.65841 13.9583 9.37508 13.675 9.37508 13.3333V10.625H6.66675C6.32508 10.625 6.04175 10.3416 6.04175 9.99996C6.04175 9.65829 6.32508 9.37496 6.66675 9.37496H9.37508V6.66663C9.37508 6.32496 9.65841 6.04163 10.0001 6.04163C10.3417 6.04163 10.6251 6.32496 10.6251 6.66663V9.37496H13.3334C13.6751 9.37496 13.9584 9.65829 13.9584 9.99996C13.9584 10.3416 13.6751 10.625 13.3334 10.625Z" fill="white"/>
</svg>
