<svg width="24" height="24" viewBox="0 0 24 24" fill="none" xmlns="http://www.w3.org/2000/svg">
<path d="M18.7299 14.67L14.5799 18.82C14.4199 18.98 14.2699 19.29 14.2299 19.51L13.9999 21.1C13.9199 21.67 14.3199 22.08 14.8899 21.99L16.4799 21.76C16.6999 21.73 17.0099 21.57 17.1699 21.41L21.3199 17.26C22.0299 16.55 22.3699 15.71 21.3199 14.66C20.2799 13.62 19.4499 13.95 18.7299 14.67Z" fill="#B8C3E1"/>
<path d="M18.1399 15.26C18.4899 16.52 19.4799 17.5 20.7399 17.86Z" fill="#B8C3E1"/>
<path d="M2.03001 14.63C2.03001 14.66 2.01001 14.7 2.01001 14.73C2.93001 16.57 4.43001 18.08 6.27001 18.99C6.30001 18.99 6.34001 18.97 6.37001 18.97C6.03001 17.81 5.77001 16.62 5.58001 15.43C4.38001 15.23 3.19001 14.97 2.03001 14.63Z" fill="#B8C3E1"/>
<path d="M19.0701 6.42994C18.1301 4.45994 16.5401 2.86994 14.5801 1.93994C14.9401 3.12994 15.2401 4.34994 15.4401 5.56994C16.6601 5.76994 17.8801 6.05994 19.0701 6.42994Z" fill="#B8C3E1"/>
<path d="M1.92993 6.43002C3.12993 6.07002 4.34993 5.77002 5.56993 5.57002C5.76993 4.38002 6.01993 3.20002 6.35993 2.04002C6.32993 2.04002 6.28993 2.02002 6.25993 2.02002C4.37993 2.95002 2.84993 4.52002 1.92993 6.43002Z" fill="#B8C3E1"/>
<path d="M13.8199 5.36C13.5799 4.06 13.2799 2.76 12.8499 1.5C12.8299 1.43 12.8299 1.37 12.8199 1.29C12.0799 1.11 11.2999 1 10.4999 1C9.68993 1 8.91993 1.11 8.16993 1.3C8.15993 1.37 8.16993 1.43 8.14993 1.51C7.72993 2.77 7.41993 4.06 7.17993 5.36C9.38993 5.12 11.6099 5.12 13.8199 5.36Z" fill="#B8C3E1"/>
<path d="M5.36 7.18005C4.05 7.42005 2.77 7.73005 1.5 8.15005C1.43 8.17005 1.37 8.17005 1.3 8.18005C1.11 8.92005 1 9.70005 1 10.5001C1 11.3101 1.11 12.0801 1.3 12.8301C1.37 12.8401 1.43 12.8301 1.51 12.8501C2.77 13.2701 4.06 13.5801 5.37 13.8201C5.12 11.6101 5.12 9.39005 5.36 7.18005Z" fill="#B8C3E1"/>
<path d="M19.6999 8.18005C19.6299 8.18005 19.5699 8.17005 19.4899 8.15005C18.2299 7.73005 16.9299 7.42005 15.6299 7.18005C15.8799 9.39005 15.8799 11.6101 15.6299 13.8101C16.9299 13.5701 18.2299 13.2701 19.4899 12.8401C19.5599 12.8201 19.6199 12.8301 19.6999 12.8201C19.8799 12.0701 19.9999 11.3001 19.9999 10.4901C19.9999 9.70005 19.8899 8.93005 19.6999 8.18005Z" fill="#B8C3E1"/>
<path d="M7.17993 15.64C7.41993 16.95 7.71993 18.24 8.14993 19.5C8.16993 19.57 8.15993 19.63 8.16993 19.71C8.91993 19.89 9.68993 20 10.4999 20C11.2999 20 12.0799 19.89 12.8199 19.7C12.8299 19.63 12.8299 19.57 12.8499 19.49C13.2699 18.23 13.5799 16.94 13.8199 15.63C12.7199 15.75 11.6099 15.84 10.4999 15.84C9.38993 15.84 8.27993 15.76 7.17993 15.64Z" fill="#B8C3E1"/>
<path d="M6.9501 6.94998C6.6501 9.30998 6.6501 11.69 6.9501 14.06C9.3101 14.36 11.6901 14.36 14.0601 14.06C14.3601 11.7 14.3601 9.31998 14.0601 6.94998C11.6901 6.64998 9.3101 6.64998 6.9501 6.94998Z" fill="#B8C3E1"/>
</svg>
