<svg width="16" height="16" viewBox="0 0 16 16" fill="none" xmlns="http://www.w3.org/2000/svg">
<path d="M11.3577 0H4.65032C1.73687 0 0 1.736 0 4.648V11.344C0 14.264 1.73687 16 4.65032 16H11.3497C14.2631 16 16 14.264 16 11.352V4.648C16.008 1.736 14.2711 0 11.3577 0ZM11.2056 8.6H8.60429V11.2C8.60429 11.528 8.33215 11.8 8.00399 11.8C7.67582 11.8 7.40369 11.528 7.40369 11.2V8.6H4.80239C4.47423 8.6 4.20209 8.328 4.20209 8C4.20209 7.672 4.47423 7.4 4.80239 7.4H7.40369V4.8C7.40369 4.472 7.67582 4.2 8.00399 4.2C8.33215 4.2 8.60429 4.472 8.60429 4.8V7.4H11.2056C11.5337 7.4 11.8059 7.672 11.8059 8C11.8059 8.328 11.5337 8.6 11.2056 8.6Z" fill="white"/>
</svg>
