<svg width="687" height="687" viewBox="0 0 687 687" fill="none" xmlns="http://www.w3.org/2000/svg">
<g filter="url(#filter0_f_64_1197)">
<circle cx="343.5" cy="343.5" r="193.5" fill="#C1CBFF"/>
</g>
<circle cx="343.5" cy="343.5" r="215.5" fill="#EFF2FF" stroke="white" stroke-width="12"/>
<mask id="mask0_64_1197" style="mask-type:alpha" maskUnits="userSpaceOnUse" x="135" y="135" width="417" height="417">
<circle cx="343.5" cy="343.5" r="208.5" fill="white"/>
</mask>
<g mask="url(#mask0_64_1197)">
<path d="M233.484 473.094L368.26 581.548C479.071 568.515 565 474.271 565 359.888C565 357.491 564.956 355.093 564.869 352.739L449.745 256.098L446.651 253.352L443.645 254.137L437.544 249.124L421.857 233.562L409.221 251.521L300.894 262.244L268.169 233.387L233.484 274.886L247.297 348.119L295.055 385.651L283.29 433.383L233.484 473.094Z" fill="url(#paint0_linear_64_1197)"/>
<path d="M418.413 244.484H420.42C443.504 244.484 462.355 263.27 462.355 286.178V442.758C462.355 465.709 443.46 484.452 420.42 484.452H418.413V303.792C427.227 303.792 434.34 296.677 434.34 287.957C434.34 279.193 427.184 272.121 418.413 272.121V244.484ZM264.986 244.484H418.413V272.077C409.598 272.077 402.442 279.193 402.442 287.913C402.442 296.677 409.598 303.749 418.413 303.749V484.452H264.986V303.792C273.8 303.792 280.957 296.677 280.957 287.957C280.957 279.193 273.8 272.121 264.986 272.121V244.484ZM262.935 244.484H264.942V272.077C256.128 272.077 249.015 279.193 249.015 287.913C249.015 296.677 256.171 303.749 264.942 303.749V484.452H262.935C239.851 484.452 221 465.665 221 442.758V286.178C221 263.27 239.895 244.484 262.935 244.484Z" fill="white"/>
<path d="M418.413 244.484H420.42C443.504 244.484 462.355 263.357 462.355 286.371V315.226H418.413V304.024C427.227 304.024 434.34 296.876 434.34 288.115C434.34 279.31 427.184 272.205 418.413 272.205V244.484ZM264.986 244.484H418.413V272.205C409.598 272.205 402.442 279.354 402.442 288.115C402.442 296.919 409.598 304.024 418.413 304.024V315.226H264.986V304.024C273.8 304.024 280.957 296.876 280.957 288.115C280.957 279.31 273.8 272.205 264.986 272.205V244.484ZM262.935 244.484H264.942V272.205C256.128 272.205 249.015 279.354 249.015 288.115C249.015 296.919 256.171 304.024 264.942 304.024V315.226H221V286.371C221 263.357 239.895 244.484 262.935 244.484Z" fill="url(#paint1_linear_64_1197)"/>
<path d="M264.672 232C268.088 232 270.892 234.803 270.892 238.218V281.265C270.892 284.681 268.088 287.484 264.672 287.484C261.255 287.484 258.452 284.681 258.452 281.265V238.218C258.452 234.759 261.211 232 264.672 232ZM418.683 232C422.1 232 424.903 234.803 424.903 238.218V281.265C424.903 284.681 422.1 287.484 418.683 287.484C415.267 287.484 412.463 284.681 412.463 281.265V238.218C412.507 234.759 415.267 232 418.683 232Z" fill="white"/>
<path d="M313.404 457.489H291.841V376.097C283.961 383.468 274.695 388.932 264 392.488V372.888C269.629 371.023 275.734 367.554 282.359 362.394C288.94 357.234 293.486 351.249 295.954 344.355H313.447V457.489H313.404ZM364.149 396.694C358.564 394.352 354.537 391.1 351.982 386.981C349.471 382.861 348.172 378.351 348.172 373.408C348.172 364.996 351.116 358.057 356.962 352.594C362.807 347.13 371.164 344.355 381.945 344.355C392.64 344.355 400.953 347.087 406.842 352.594C412.73 358.057 415.718 365.039 415.718 373.408C415.718 378.655 414.376 383.295 411.648 387.371C408.92 391.447 405.11 394.569 400.217 396.694C406.452 399.209 411.215 402.852 414.462 407.665C417.71 412.478 419.355 418.029 419.355 424.36C419.355 434.767 416.021 443.223 409.396 449.727C402.772 456.232 393.939 459.484 382.941 459.484C372.722 459.484 364.193 456.795 357.395 451.418C349.341 445.044 345.358 436.371 345.358 425.27C345.358 419.156 346.873 413.562 349.904 408.489C352.892 403.372 357.655 399.469 364.149 396.694ZM366.617 423.189C366.617 429.13 368.133 433.769 371.164 437.108C374.195 440.447 378.005 442.095 382.551 442.095C387.011 442.095 390.691 440.491 393.592 437.282C396.493 434.073 397.965 429.477 397.965 423.406C397.965 418.115 396.493 413.866 393.506 410.7C390.518 407.491 386.794 405.887 382.205 405.887C376.922 405.887 373.025 407.708 370.428 411.351C367.916 414.993 366.617 418.939 366.617 423.189ZM368.609 374.926C368.609 379.219 369.821 382.601 372.246 384.986C374.671 387.414 377.918 388.585 381.945 388.585C386.058 388.585 389.306 387.371 391.774 384.943C394.242 382.514 395.454 379.132 395.454 374.839C395.454 370.806 394.242 367.554 391.817 365.126C389.392 362.697 386.188 361.483 382.205 361.483C378.048 361.483 374.757 362.697 372.289 365.169C369.821 367.641 368.609 370.893 368.609 374.926Z" fill="#4D64DE"/>
</g>
<defs>
<filter id="filter0_f_64_1197" x="0" y="0" width="687" height="687" filterUnits="userSpaceOnUse" color-interpolation-filters="sRGB">
<feFlood flood-opacity="0" result="BackgroundImageFix"/>
<feBlend mode="normal" in="SourceGraphic" in2="BackgroundImageFix" result="shape"/>
<feGaussianBlur stdDeviation="75" result="effect1_foregroundBlur_64_1197"/>
</filter>
<linearGradient id="paint0_linear_64_1197" x1="399.242" y1="233.387" x2="399.242" y2="581.548" gradientUnits="userSpaceOnUse">
<stop stop-color="#4D64DE"/>
<stop offset="1" stop-color="#4D64DE" stop-opacity="0"/>
</linearGradient>
<linearGradient id="paint1_linear_64_1197" x1="341.677" y1="244.484" x2="341.677" y2="315.226" gradientUnits="userSpaceOnUse">
<stop stop-color="#B5C0FF"/>
<stop offset="1" stop-color="#4D64DE"/>
</linearGradient>
</defs>
</svg>
