<svg width="18" height="21" viewBox="0 0 18 21" fill="none" xmlns="http://www.w3.org/2000/svg">
<path d="M13.75 2.31V0.75C13.75 0.34 13.41 0 13 0C12.59 0 12.25 0.34 12.25 0.75V2.25H5.74999V0.75C5.74999 0.34 5.40999 0 4.99999 0C4.58999 0 4.24999 0.34 4.24999 0.75V2.31C1.54999 2.56 0.239985 4.17 0.039985 6.56C0.019985 6.85 0.259985 7.09 0.539985 7.09H17.46C17.75 7.09 17.99 6.84 17.96 6.56C17.76 4.17 16.45 2.56 13.75 2.31Z" fill="#B8C3E1"/>
<path d="M17 8.58997H1C0.45 8.58997 0 9.03997 0 9.58997V15.75C0 18.75 1.5 20.75 5 20.75H13C16.5 20.75 18 18.75 18 15.75V9.58997C18 9.03997 17.55 8.58997 17 8.58997ZM6.21 16.96C6.11 17.05 6 17.12 5.88 17.17C5.76 17.22 5.63 17.25 5.5 17.25C5.37 17.25 5.24 17.22 5.12 17.17C5 17.12 4.89 17.05 4.79 16.96C4.61 16.77 4.5 16.51 4.5 16.25C4.5 15.99 4.61 15.73 4.79 15.54C4.89 15.45 5 15.38 5.12 15.33C5.36 15.23 5.64 15.23 5.88 15.33C6 15.38 6.11 15.45 6.21 15.54C6.39 15.73 6.5 15.99 6.5 16.25C6.5 16.51 6.39 16.77 6.21 16.96ZM6.42 13.13C6.37 13.25 6.3 13.36 6.21 13.46C6.11 13.55 6 13.62 5.88 13.67C5.76 13.72 5.63 13.75 5.5 13.75C5.37 13.75 5.24 13.72 5.12 13.67C5 13.62 4.89 13.55 4.79 13.46C4.7 13.36 4.63 13.25 4.58 13.13C4.53 13.01 4.5 12.88 4.5 12.75C4.5 12.62 4.53 12.49 4.58 12.37C4.63 12.25 4.7 12.14 4.79 12.04C4.89 11.95 5 11.88 5.12 11.83C5.36 11.73 5.64 11.73 5.88 11.83C6 11.88 6.11 11.95 6.21 12.04C6.3 12.14 6.37 12.25 6.42 12.37C6.47 12.49 6.5 12.62 6.5 12.75C6.5 12.88 6.47 13.01 6.42 13.13ZM9.71 13.46C9.61 13.55 9.5 13.62 9.38 13.67C9.26 13.72 9.13 13.75 9 13.75C8.87 13.75 8.74 13.72 8.62 13.67C8.5 13.62 8.39 13.55 8.29 13.46C8.11 13.27 8 13.01 8 12.75C8 12.49 8.11 12.23 8.29 12.04C8.39 11.95 8.5 11.88 8.62 11.83C8.86 11.72 9.14 11.72 9.38 11.83C9.5 11.88 9.61 11.95 9.71 12.04C9.89 12.23 10 12.49 10 12.75C10 13.01 9.89 13.27 9.71 13.46Z" fill="#B8C3E1"/>
</svg>
