<svg width="16" height="16" viewBox="0 0 16 16" fill="none" xmlns="http://www.w3.org/2000/svg">
<path d="M11.8454 0H9.76413C7.20255 0 5.60156 1.60099 5.60156 4.16257V7.40457H10.6046C10.9329 7.40457 11.205 7.67674 11.205 8.00494C11.205 8.33315 10.9329 8.60531 10.6046 8.60531H5.60156V11.8473C5.60156 14.4089 7.20255 16.0099 9.76413 16.0099H11.8374C14.399 16.0099 16 14.4089 16 11.8473V4.16257C16.008 1.60099 14.407 0 11.8454 0Z" fill="white"/>
<path d="M2.04726 7.40451L3.70428 5.74749C3.82436 5.62741 3.88039 5.47532 3.88039 5.32322C3.88039 5.17113 3.82436 5.01103 3.70428 4.89896C3.47214 4.66682 3.0879 4.66682 2.85576 4.89896L0.174107 7.58062C-0.0580358 7.81276 -0.0580358 8.197 0.174107 8.42914L2.85576 11.1108C3.0879 11.3429 3.47214 11.3429 3.70428 11.1108C3.93643 10.8787 3.93643 10.4944 3.70428 10.2623L2.04726 8.60525H5.60145V7.40451H2.04726V7.40451Z" fill="white"/>
</svg>
