<svg width="131" height="127" viewBox="0 0 131 127" fill="none" xmlns="http://www.w3.org/2000/svg">
<path d="M54.0635 14.5557C24.205 14.5557 2.61031e-06 39.6917 0 70.6985C-2.61031e-06 101.705 24.205 126.841 54.0635 126.841L54.0635 14.5557Z" fill="#8759F2"/>
<path d="M54.0637 126.841C40.2829 126.841 29.1113 114.739 29.1113 99.8096C29.1113 84.8804 40.2829 72.7778 54.0637 72.7778L54.0637 126.841Z" fill="#FF3E80"/>
<path d="M54.0634 126.841C71.2895 126.841 85.2539 114.739 85.2539 99.8096C85.2539 84.8804 71.2895 72.7778 54.0634 72.7778L54.0634 126.841Z" fill="#FFC300"/>
<path d="M126.191 34.3602C132.603 38.0343 132.603 47.2196 126.191 50.8938L68.4891 83.9609C62.0777 87.635 54.0635 83.0423 54.0635 75.6941L54.0635 9.55989C54.0635 2.21165 62.0777 -2.38101 68.4891 1.29312L126.191 34.3602Z" fill="#8759F2"/>
</svg>
