<svg width="16" height="16" viewBox="0 0 16 16" fill="none" xmlns="http://www.w3.org/2000/svg">
<path d="M11.8454 0H9.76414C7.20256 0 5.60156 1.60099 5.60156 4.16258V7.40459H10.6047C10.9329 7.40459 11.205 7.67676 11.205 8.00496C11.205 8.33317 10.9329 8.60534 10.6047 8.60534H5.60156V11.8473C5.60156 14.4089 7.20256 16.0099 9.76414 16.0099H11.8374C14.399 16.0099 16 14.4089 16 11.8473V4.16258C16.008 1.60099 14.407 0 11.8454 0Z" fill="white"/>
<path d="M2.04727 7.40452L3.7043 5.74749C3.82437 5.62741 3.88041 5.47532 3.88041 5.32322C3.88041 5.17113 3.82437 5.01103 3.7043 4.89896C3.47215 4.66682 3.08792 4.66682 2.85577 4.89896L0.174108 7.58063C-0.058036 7.81277 -0.058036 8.19701 0.174108 8.42915L2.85577 11.1108C3.08792 11.343 3.47215 11.343 3.7043 11.1108C3.93644 10.8787 3.93644 10.4944 3.7043 10.2623L2.04727 8.60526H5.60147V7.40452H2.04727V7.40452Z" fill="white"/>
</svg>
