<svg width="18" height="20" viewBox="0 0 18 20" fill="none" xmlns="http://www.w3.org/2000/svg">
<path d="M13.5 0H3.86C1.73 0 0 1.74 0 3.86V17.95C0 19.75 1.29 20.51 2.87 19.64L7.75 16.93C8.27 16.64 9.11 16.64 9.62 16.93L14.5 19.64C16.08 20.52 17.37 19.76 17.37 17.95V3.86C17.36 1.74 15.63 0 13.5 0ZM11.69 7.75C10.72 8.1 9.7 8.28 8.68 8.28C7.66 8.28 6.64 8.1 5.67 7.75C5.28 7.61 5.08 7.18 5.22 6.79C5.37 6.4 5.8 6.2 6.19 6.34C7.8 6.92 9.57 6.92 11.18 6.34C11.57 6.2 12 6.4 12.14 6.79C12.28 7.18 12.08 7.61 11.69 7.75Z" fill="#292D32"/>
</svg>
