<svg width="28" height="28" viewBox="0 0 28 28" fill="none" xmlns="http://www.w3.org/2000/svg">
<path fill-rule="evenodd" clip-rule="evenodd" d="M2.33325 12.4483C2.33325 6.86197 6.81365 2.33337 12.3405 2.33337C14.9946 2.33337 17.54 3.39905 19.4167 5.29596C21.2934 7.19288 22.3477 9.76565 22.3477 12.4483C22.3477 18.0346 17.8673 22.5632 12.3405 22.5632C6.81365 22.5632 2.33325 18.0346 2.33325 12.4483ZM22.1822 20.5967L25.1626 23.0025H25.2143C25.8173 23.612 25.8173 24.6001 25.2143 25.2096C24.6114 25.8191 23.6337 25.8191 23.0308 25.2096L20.5574 22.3749C20.3236 22.1394 20.1922 21.8195 20.1922 21.4858C20.1922 21.1522 20.3236 20.8322 20.5574 20.5967C21.0084 20.1488 21.7312 20.1488 22.1822 20.5967Z" fill="#AAADAF"/>
</svg>
